# xmcd
#
# Track frame offsets:
#	150
#	12318
#	25916
#	39696
#	48282
#	60741
#	71292
#	83554
#	94110
#	104249
#	115813
#
# Disc length: 1680 seconds
#
# Revision: 1
# Processed by: cddbd v1.5.1PL0 Copyright (c) Steve Scherf et al.
# Submitted via: audiograbber 1.83.01
#
DISCID=8b068e0b
DTITLE=Glen Campbell - A New Place In the Sun
DYEAR=1968
DGENRE=Country
TTITLE0=Freeborn Man
TTITLE1=The Last Letter
TTITLE2=She Called Me Baby
TTITLE3=Visions of Sugarplums
TTITLE4=I Have No One To Love Me Anymore
TTITLE5=The Legend of Bonnie and Clyde
TTITLE6=A Place In the Sun
TTITLE7=Have I Stayed Away Too Long?
TTITLE8=Within My Memory
TTITLE9=The Twelfth of Never
TTITLE10=Sunny Day Girl
EXTD=Capitol ST-2907\nArranged and Conducted by Al de Lory
EXTT0=
EXTT1=
EXTT2=
EXTT3=
EXTT4=
EXTT5=
EXTT6=
EXTT7=
EXTT8=
EXTT9=
EXTT10=
PLAYORDER=
